<?xml version="1.0" encoding="utf-8"?>
<!-- Generator: Adobe Illustrator 18.1.1, SVG Export Plug-In . SVG Version: 6.00 Build 0)  -->
<svg version="1.1" id="Layer_1" xmlns="http://www.w3.org/2000/svg" xmlns:xlink="http://www.w3.org/1999/xlink" x="0px" y="0px"
	 viewBox="0 0 200 200" enable-background="new 0 0 200 200" xml:space="preserve">
<image display="none" overflow="visible" enable-background="new    " width="419" height="393" xlink:href="B9716507.jpg"  transform="matrix(0.6141 0 0 0.6141 -28.6556 -20.6722)">
</image>
<path fill="#FFCE32" d="M43,59c0,0-41.2,13.5-42,58s48,50,65,50c13.8,0,45.9-4.5,71-16c26.4-12.1,50.1-30.1,56.9-48.1
	c6.1-18.7,11.8-47.1-16-59c-17.3-7.4-20-2-20-2s21,11.6,9.7,37.1c0,0,1.7-22.2-19.7-37.1S99.6,35.7,96,39c0,0,20.1,2.4,31,18
	c10.3,14.9,4,34,4,34s-6-31.5-29-42s-39.3-3.5-49,5c0,0,19.6,1.2,31,17s8,32,8,32s-5.1-17-20-30S43,59,43,59z"/>
</svg>
