<?xml version="1.0" encoding="utf-8"?>
<!-- Generator: Adobe Illustrator 18.1.1, SVG Export Plug-In . SVG Version: 6.00 Build 0)  -->
<svg version="1.1" id="Layer_1" xmlns="http://www.w3.org/2000/svg" xmlns:xlink="http://www.w3.org/1999/xlink" x="0px" y="0px"
	 viewBox="0 0 100 100" enable-background="new 0 0 100 100" xml:space="preserve">
<g display="none">
	<rect x="3" y="13" display="inline" fill="#555356" width="94" height="10"/>
	<rect x="3" y="77" display="inline" fill="#555356" width="94" height="10"/>
	<rect x="3" y="45" display="inline" fill="#555356" width="94" height="10"/>
</g>
<g display="none">
	<rect x="3" y="13" display="inline" fill="#B99969" width="94" height="10"/>
	<rect x="3" y="77" display="inline" fill="#B99969" width="94" height="10"/>
	<rect x="3" y="45" display="inline" fill="#B99969" width="94" height="10"/>
</g>
<g>
	<rect x="3" y="13" fill="#009223" width="94" height="10"/>
	<rect x="3" y="77" fill="#009223" width="94" height="10"/>
	<rect x="3" y="45" fill="#009223" width="94" height="10"/>
</g>
<g display="none">
	<rect x="3" y="13" display="inline" fill="#184F3B" width="94" height="10"/>
	<rect x="3" y="77" display="inline" fill="#184F3B" width="94" height="10"/>
	<rect x="3" y="45" display="inline" fill="#184F3B" width="94" height="10"/>
</g>
<g display="none">
	<circle display="inline" fill="none" cx="50" cy="36" r="10.8"/>
	<path display="inline" fill="#989699" d="M58.2,76L50,86l-8.2-10c-15,0.9-26.2,4.3-26.2,8.4C15.6,89.1,31,93,50,93
		s34.4-3.9,34.4-8.6C84.4,80.3,73.2,76.9,58.2,76z"/>
	<path display="inline" fill="#555356" d="M58.2,76L73,57.9l1.6-1.9c1.8-2.5,3.3-5.2,4.3-8.2c1.1-3.2,1.7-6.6,1.7-10.1
		C80.6,20.7,66.9,7,50,7S19.4,20.7,19.4,37.6c0,3.6,0.6,7,1.7,10.1c1,3,2.5,5.7,4.3,8.2c0.5,0.7,1,1.3,1.6,1.9L41.8,76L50,86
		L58.2,76z M50,25.3c5.9,0,10.8,4.8,10.8,10.8c0,5.9-4.8,10.8-10.8,10.8S39.3,42,39.3,36C39.3,30.1,44.1,25.3,50,25.3z"/>
</g>
<g display="none">
	<circle display="inline" fill="none" cx="50" cy="36" r="10.8"/>
	<path display="inline" fill="#555356" d="M58.2,76L50,86l-8.2-10c-15,0.9-26.2,4.3-26.2,8.4C15.6,89.1,31,93,50,93
		s34.4-3.9,34.4-8.6C84.4,80.3,73.2,76.9,58.2,76z"/>
	<path display="inline" fill="#B99969" d="M58.2,76L73,57.9l1.6-1.9c1.8-2.5,3.3-5.2,4.3-8.2c1.1-3.2,1.7-6.6,1.7-10.1
		C80.6,20.7,66.9,7,50,7S19.4,20.7,19.4,37.6c0,3.6,0.6,7,1.7,10.1c1,3,2.5,5.7,4.3,8.2c0.5,0.7,1,1.3,1.6,1.9L41.8,76L50,86
		L58.2,76z M50,25.3c5.9,0,10.8,4.8,10.8,10.8c0,5.9-4.8,10.8-10.8,10.8S39.3,42,39.3,36C39.3,30.1,44.1,25.3,50,25.3z"/>
</g>
<image display="none" overflow="visible" width="40" height="50" xlink:href="106EFB16.jpg"  transform="matrix(1.6 0 0 1.6 18 10)">
</image>
</svg>
