<?xml version="1.0" encoding="utf-8"?>
<!-- Generator: Adobe Illustrator 18.1.1, SVG Export Plug-In . SVG Version: 6.00 Build 0)  -->
<svg version="1.1" id="Layer_1" xmlns="http://www.w3.org/2000/svg" xmlns:xlink="http://www.w3.org/1999/xlink" x="0px" y="0px"
	 viewBox="0 0 200 200" enable-background="new 0 0 200 200" xml:space="preserve">
<g>
	<circle fill="#009223" cx="85.4" cy="58" r="41"/>
	<g>
		<path fill="#009223" d="M186.9,137.4l-8.6-1.4c-0.6-2.6-1.5-5-2.7-7.3l5.5-6.8c1.2-1.4,1.1-3.5-0.1-4.9l-3.4-3.8
			c-1.2-1.4-3.3-1.7-4.9-0.7l-7.3,4.6c-3.2-2.3-6.9-3.9-10.8-4.9l-1.4-8.6c-0.3-1.8-1.9-3.2-3.7-3.2h-5.2c-1.9,0-3.4,1.3-3.7,3.2
			l-1.4,8.6c-3.3,0.8-6.3,2.1-9.1,3.8l-7-5c-1.5-1.1-3.6-0.9-4.9,0.4l-3.6,3.6c-1.3,1.3-1.5,3.4-0.4,4.9l5,7c-1.7,2.8-3,5.8-3.8,9.1
			l-8.7,1.5c-1.8,0.3-3.2,1.9-3.2,3.7v5.1c0,1.9,1.3,3.4,3.2,3.7l8.7,1.5c0.7,2.7,1.6,5.2,2.9,7.6l-5.5,6.8
			c-1.2,1.4-1.1,3.5,0.1,4.9l3.4,3.8c1.2,1.4,3.3,1.7,4.9,0.7l7.5-4.7c3.2,2.2,6.7,3.7,10.6,4.7l1.4,8.6c0.3,1.8,1.9,3.2,3.7,3.2
			h5.2c1.9,0,3.4-1.3,3.7-3.2l1.4-8.6c3.2-0.8,6.2-2.1,9-3.7l7.3,5.2c1.5,1.1,3.6,0.9,4.9-0.4l3.6-3.6c1.3-1.3,1.5-3.4,0.4-4.9
			l-5.2-7.3c1.7-2.8,3-5.8,3.8-9.1l8.6-1.4c1.8-0.3,3.2-1.9,3.2-3.7v-5.1C190.1,139.3,188.7,137.7,186.9,137.4L186.9,137.4z
			 M146.8,160c-9,0-16.3-7.3-16.3-16.3c0-9,7.3-16.3,16.3-16.3c9,0,16.3,7.3,16.3,16.3C163.1,152.7,155.8,160,146.8,160L146.8,160z
			 M146.8,160"/>
	</g>
	<path fill="#009223" d="M101.2,181.6c-2.7-2.7-3.5-6.6-1.9-9.1l7-10.8c-0.3-0.7-0.6-1.4-0.9-2.1l-12.6-2.7c-3-0.6-5.1-3.9-5.1-7.8
		v-1.8v-7v-1.8c0-3.9,2.2-7.1,5.1-7.8l12.6-2.7c0.3-0.8,0.6-1.5,0.9-2.3l-6.9-10.6c-1.1-1.7-1.1-4-0.2-6.1
		c-4.5-0.8-9.2-1.3-13.9-1.3c-41.7,0-75.5,33.8-75.5,75.5h92.7L101.2,181.6z"/>
</g>
</svg>
