<?xml version="1.0" encoding="utf-8"?>
<!-- Generator: Adobe Illustrator 18.1.1, SVG Export Plug-In . SVG Version: 6.00 Build 0)  -->
<svg version="1.1" id="Layer_1" xmlns="http://www.w3.org/2000/svg" xmlns:xlink="http://www.w3.org/1999/xlink" x="0px" y="0px"
	 viewBox="0 0 200 200" enable-background="new 0 0 200 200" xml:space="preserve">
<g>
	<circle fill="#FFFFFF" cx="-353.5" cy="59.2" r="38"/>
	<g>
		<path fill="#FFFFFF" d="M-259.4,132.8l-8-1.3c-0.6-2.4-1.4-4.6-2.5-6.7l5.1-6.3c1.1-1.3,1-3.3-0.1-4.5l-3.2-3.6
			c-1.1-1.3-3.1-1.6-4.5-0.6l-6.8,4.3c-3-2.1-6.4-3.6-10.1-4.5l-1.3-8c-0.3-1.7-1.7-2.9-3.5-2.9h-4.8c-1.7,0-3.2,1.2-3.5,2.9l-1.3,8
			c-3,0.7-5.9,1.9-8.5,3.5l-6.5-4.6c-1.4-1-3.3-0.8-4.5,0.4l-3.4,3.4c-1.2,1.2-1.4,3.1-0.4,4.5l4.6,6.5c-1.6,2.6-2.7,5.4-3.5,8.4
			l-8.1,1.3c-1.7,0.3-2.9,1.7-2.9,3.5v4.8c0,1.7,1.2,3.2,2.9,3.5l8.1,1.3c0.6,2.5,1.5,4.8,2.7,7l-5.1,6.3c-1.1,1.3-1,3.3,0.1,4.5
			l3.2,3.6c1.1,1.3,3.1,1.6,4.5,0.6l6.9-4.3c2.9,2,6.2,3.5,9.8,4.3l1.3,8c0.3,1.7,1.7,2.9,3.5,2.9h4.8c1.7,0,3.2-1.2,3.5-2.9l1.3-8
			c3-0.7,5.8-1.9,8.4-3.5l6.7,4.8c1.4,1,3.3,0.8,4.5-0.4l3.4-3.4c1.2-1.2,1.4-3.1,0.4-4.5l-4.8-6.7c1.6-2.6,2.8-5.4,3.5-8.4l8-1.3
			c1.7-0.3,2.9-1.7,2.9-3.5v-4.8C-256.5,134.5-257.7,133.1-259.4,132.8L-259.4,132.8z M-296.6,153.7c-8.3,0-15.1-6.8-15.1-15.1
			c0-8.3,6.8-15.1,15.1-15.1c8.3,0,15.1,6.8,15.1,15.1C-281.5,147-288.3,153.7-296.6,153.7L-296.6,153.7z M-296.6,153.7"/>
	</g>
	<path fill="#FFFFFF" d="M-338.9,173.7c-2.5-2.5-3.2-6.1-1.7-8.5l6.5-10c-0.3-0.6-0.6-1.3-0.8-1.9l-11.7-2.5
		c-2.7-0.6-4.8-3.6-4.8-7.2v-1.7v-6.5v-1.7c0-3.6,2-6.6,4.8-7.2l11.7-2.5c0.3-0.7,0.6-1.4,0.9-2.1l-6.4-9.9c-1-1.6-1-3.7-0.2-5.7
		c-4.2-0.8-8.5-1.2-12.9-1.2c-38.6,0-70,31.3-70,70h86L-338.9,173.7z"/>
</g>
<circle fill="#FFFFFF" cx="-342.7" cy="-152.2" r="42"/>
<g>
	<path fill="#FFFFFF" d="M-238.8-70.9l-8.8-1.5c-0.6-2.6-1.6-5.1-2.8-7.4l5.6-7c1.2-1.5,1.1-3.6-0.1-5l-3.5-3.9
		c-1.3-1.4-3.4-1.7-5-0.7l-7.5,4.7c-3.3-2.3-7.1-4-11.1-5l-1.5-8.8c-0.3-1.9-1.9-3.2-3.8-3.2h-5.3c-1.9,0-3.5,1.4-3.8,3.2l-1.5,8.8
		c-3.3,0.8-6.5,2.1-9.3,3.9l-7.2-5.1c-1.5-1.1-3.7-0.9-5,0.4l-3.7,3.7c-1.3,1.3-1.5,3.5-0.4,5l5.1,7.2c-1.7,2.8-3,6-3.8,9.3
		l-8.9,1.5c-1.9,0.3-3.2,1.9-3.2,3.8v5.3c0,1.9,1.4,3.5,3.2,3.8l8.9,1.5c0.7,2.7,1.6,5.3,2.9,7.7l-5.6,6.9c-1.2,1.5-1.1,3.6,0.1,5
		l3.5,3.9c1.3,1.4,3.4,1.7,5,0.7l7.6-4.8c3.2,2.2,6.9,3.8,10.8,4.8l1.5,8.8c0.3,1.9,1.9,3.2,3.8,3.2h5.3c1.9,0,3.5-1.4,3.8-3.2
		l1.5-8.8c3.3-0.8,6.4-2.1,9.2-3.8l7.5,5.3c1.5,1.1,3.7,0.9,5-0.4l3.7-3.7c1.3-1.3,1.5-3.5,0.4-5l-5.3-7.4c1.7-2.8,3-6,3.9-9.3
		l8.8-1.5c1.9-0.3,3.2-1.9,3.2-3.8v-5.3C-235.5-69-236.9-70.6-238.8-70.9L-238.8-70.9z M-279.8-47.8c-9.2,0-16.6-7.5-16.6-16.7
		c0-9.2,7.5-16.6,16.6-16.6c9.2,0,16.7,7.5,16.7,16.6C-263.1-55.2-270.6-47.8-279.8-47.8L-279.8-47.8z M-279.8-47.8"/>
</g>
<path fill="#FFFFFF" d="M-326.5-25.7c-2.8-2.8-3.6-6.7-1.9-9.3l7.2-11.1c-0.3-0.7-0.6-1.4-0.9-2.1l-12.9-2.8c-3-0.6-5.3-4-5.3-7.9
	v-1.9V-68v-1.9c0-3.9,2.2-7.3,5.3-7.9l12.9-2.8c0.3-0.8,0.6-1.6,1-2.3l-7.1-10.9c-1.1-1.7-1.1-4.1-0.2-6.3
	c-4.6-0.9-9.4-1.3-14.2-1.3c-42.7,0-77.2,34.6-77.2,77.2h94.9L-326.5-25.7z"/>
<g>
	<circle fill="#FFFFFF" cx="-120" cy="61" r="38"/>
	<path fill="#FFFFFF" d="M-50,177h-140c0-38.6,31.3-70,70-70S-50,138.4-50,177z"/>
</g>
<g>
	<circle fill="#009223" cx="100" cy="58" r="41"/>
	<path fill="#009223" d="M175.4,183H24.6c0-41.7,33.8-75.4,75.4-75.4S175.4,141.3,175.4,183z"/>
</g>
</svg>
