<?xml version="1.0" encoding="utf-8"?>
<!-- Generator: Adobe Illustrator 18.1.1, SVG Export Plug-In . SVG Version: 6.00 Build 0)  -->
<svg version="1.1" id="Capa_1" xmlns="http://www.w3.org/2000/svg" xmlns:xlink="http://www.w3.org/1999/xlink" x="0px" y="0px"
	 viewBox="0 0 100 100" enable-background="new 0 0 100 100" xml:space="preserve">
<g>
	<path fill="#fff" d="M59,85h-9c-1.6,0-3,1.4-3,3s1.4,3,3,3h9V85z"/>
	<path fill="#FFCE32" d="M5.9,58.9C5.9,66,11.3,71.6,18,73V45C11.3,46.4,5.9,51.8,5.9,58.9z"/>
	<path fill="#FFCE32" d="M82,45v28c6.7-1.4,12-6.9,12-14S88.7,46.4,82,45z"/>
	<path fill="#906d4f" d="M88.1,40.3C87.6,19.7,70.7,3,50,3S12.5,19.4,12,40C5,43.3,0,50.6,0,58.9C0,70.2,9.7,80,21,80h3V38h-3
		c-0.9,0-2.3,0.4-3.1,0.5C19.2,22,33.1,8.9,50,8.9S80.8,22,82.1,38.5C81.3,38.4,79.9,38,79,38h-3v42h3c0.9,0,2.3-0.4,3-0.8l0,5.8H65
		v-6H50c-4.8,0-9,4.2-9,9s4.2,9,9,9h15v-6h23V78c7-3.3,12-10.9,12-19.1C100,50.6,95.1,43.5,88.1,40.3z M18,45v28
		c-6.7-1.4-12.1-7-12.1-14.1C5.9,51.8,11.3,46.4,18,45z M47,88c0-1.6,1.4-3,3-3h9v6h-9C48.4,91,47,89.6,47,88z M82,73V45
		c6.7,1.4,12,6.9,12,14S88.7,71.6,82,73z"/>
</g>
</svg>
