<?xml version="1.0" encoding="utf-8"?>
<!-- Generator: Adobe Illustrator 18.1.1, SVG Export Plug-In . SVG Version: 6.00 Build 0)  -->
<svg version="1.1" id="Layer_1" xmlns="http://www.w3.org/2000/svg" xmlns:xlink="http://www.w3.org/1999/xlink" x="0px" y="0px"
	 viewBox="0 0 100 100" enable-background="new 0 0 100 100" xml:space="preserve">
<g>
	<path fill="#fff" d="M90.9,87.5H10.1c-1.9,0-3.5,1.5-3.5,3.3v3.5h87.7v-3.5C94.3,89,92.7,87.5,90.9,87.5z"/>
	<path fill="#FFCE32" d="M10.7,40.4c2.7,0,4.8-2.2,4.9-4.9c0,0,0.1,0,0.1,0v0l-0.1-0.1c0-1.6,1.3-2.9,2.9-2.9s2.9,1.4,2.9,3v0
		c0,0,0,0.1,0,0.1c0.1,2.7,2.3,4.8,5,4.8s4.9-2.2,5-4.9c0,0,0,0,0-0.1v-0.1c0-1.6,1.2-2.9,2.7-2.9s3,1.4,3,3v0.1c0,0,0,0,0,0
		c0,2.7,2.3,4.9,5,4.9c2.7,0,4.9-2.2,5-4.9c0,0,0,0,0,0v0v0c0-1.6,1.3-3,2.9-3s2.9,1.4,2.9,3c0,0,0,0,0,0v0c0,0,0,0,0,0
		c0,2.7,2.3,4.9,5,4.9s4.9-2.2,5-4.9c0,0,0,0,0,0v-0.1c0-1.6,1.4-3,3-3s2.8,1.4,2.8,3c0,0,0,0,0,0.1s0,0,0,0.1c0,2.7,2.3,4.9,5,4.9
		s4.9-2.2,5-4.9c0,0,0,0,0,0v-0.1c0-1.6,1.2-3,2.8-3s2.9,1.4,2.9,3c0,0,0,0,0,0v0c0,0,0,0,0,0c0,2.7,2.3,4.9,5,4.9
		c2.5,0,4.6-2,4.9-4.5L83.6,5.7H16.4L5.8,36C6.1,38.5,8.2,40.4,10.7,40.4z"/>
	<path fill="#906d4f" d="M93.2,82.1V45.3c1.3-0.5,2.6-1.2,3.6-2.2c2-2,3.2-4.6,3.2-7.5c0-0.4,0-0.7-0.2-1L88.3,1.9
		C87.9,0.8,86.8,0,85.6,0H14.4c-1.2,0-2.3,0.8-2.7,1.9L0.2,34.6C0,35,0,35.3,0,35.6c0.1,2.8,1.2,5.5,3.2,7.4c1,1,2.1,1.7,3.4,2.2
		v37.1C3.3,83.8,1,87,1,90.9v6.3c0,1.6,1.3,2.9,2.9,2.9h93.3c1.6,0,2.7-1.3,2.7-2.9v-6.2C99.8,86.7,97,83.1,93.2,82.1z M94.3,94.4
		H6.6v-3.5c0-1.9,1.6-3.3,3.5-3.3h80.8c1.9,0,3.5,1.5,3.5,3.3V94.4z M42.3,51H23.1c-1.6,0-2.9,1.3-2.9,2.9v28h-7.7V46
		c2.2-0.4,4.2-1.4,5.8-2.9c0.1-0.1,0.2-0.2,0.3-0.3c0.1,0.1,0.2,0.2,0.3,0.3c2,2,4.7,3.1,7.5,3.1s5.5-1.1,7.5-3.1
		c0.1-0.1,0.2-0.2,0.3-0.3c0.1,0.1,0.2,0.2,0.3,0.3c2,2,4.7,3.1,7.5,3.1s5.5-1.1,7.5-3.1c0.1-0.1,0.2-0.2,0.3-0.3
		c0.1,0.1,0.2,0.2,0.3,0.3c2,2,4.7,3.1,7.5,3.1s5.5-1.1,7.5-3.1c0.1-0.1,0.2-0.2,0.3-0.3c0.1,0.1,0.2,0.2,0.3,0.3
		c2,2,4.7,3.1,7.5,3.1s5.5-1.1,7.5-3.1c0.1-0.1,0.2-0.2,0.3-0.3c0.1,0.1,0.2,0.2,0.3,0.3c1.6,1.6,3.6,2.7,5.8,3v35.7H45.2v-28
		C45.2,52.3,43.9,51,42.3,51z M39.5,56.7v25.2H26V56.7H39.5z M5.8,36L16.4,5.7h67.2L94.1,36c-0.3,2.5-2.3,4.5-4.9,4.5
		c-2.7,0-4.9-2.2-5-4.9c0,0,0,0,0,0v0c0,0,0,0,0,0c0-1.6-1.3-3-2.9-3s-2.8,1.4-2.8,3v0.1c0,0,0,0,0,0c-0.1,2.7-2.3,4.9-5,4.9
		s-4.9-2.2-5-4.9c0,0,0,0,0-0.1s0,0,0-0.1c0-1.6-1.2-3-2.8-3s-3,1.4-3,3v0.1c0,0,0,0,0,0c-0.1,2.7-2.3,4.9-5,4.9s-4.9-2.2-5-4.9
		c0,0,0,0,0,0v0c0,0,0,0,0,0c0-1.6-1.3-3-2.9-3s-2.9,1.4-2.9,3v0v0c0,0,0,0,0,0c-0.1,2.7-2.3,4.9-5,4.9c-2.7,0-4.9-2.2-5-4.9
		c0,0,0,0,0,0v-0.1c0-1.6-1.4-3-3-3s-2.7,1.3-2.7,2.9v0.1c0,0,0,0,0,0.1c-0.1,2.7-2.3,4.9-5,4.9s-4.9-2.1-5-4.8c0,0,0-0.1,0-0.1v0
		c0-1.6-1.3-3-2.9-3s-2.9,1.3-2.9,2.9l0.1,0.1v0c0,0-0.1,0-0.1,0c0,2.7-2.2,4.9-4.9,4.9C8.2,40.4,6.1,38.5,5.8,36z"/>
	<path fill="#906d4f" d="M59.6,72.1h11.5c4.8,0,8.8-3.8,8.8-8.6v-3.9c0-4.8-4-8.6-8.8-8.6H59.6c-4.8,0-8.6,3.8-8.6,8.6v3.9
		C51,68.3,54.8,72.1,59.6,72.1z M56.6,59.6c0-1.6,1.3-2.9,2.9-2.9h11.5c1.6,0,2.9,1.4,2.9,3v3.8c0,1.6-1.3,2.9-2.9,2.9H59.6
		c-1.6,0-2.9-1.3-2.9-2.9V59.6z"/>
</g>
</svg>
