<?xml version="1.0" encoding="iso-8859-1"?>
<!-- Generator: Adobe Illustrator 19.0.0, SVG Export Plug-In . SVG Version: 6.00 Build 0)  -->
<svg version="1.1" id="Capa_1" xmlns="http://www.w3.org/2000/svg" xmlns:xlink="http://www.w3.org/1999/xlink" x="0px" y="0px"
	 viewBox="0 0 512 512" style="enable-background:new 0 0 512 512;" xml:space="preserve">
<g>
	<g>
		<path fill="#009223" d="M450.945,206.151C448.623,100.629,362.07,15.5,256,15.5S63.377,100.629,61.055,206.151C25.045,222.814,0,259.285,0,301.5
			c0,57.897,47.103,105,105,105h15v-210h-15c-4.565,0-9.063,0.294-13.477,0.862C98.24,112.5,169.44,45.5,256,45.5
			s157.76,67,164.477,151.862c-4.413-0.568-8.911-0.862-13.477-0.862h-15v210h15c4.747,0,9.418-0.323,14-0.936V436.5h-90v-30h-75
			c-24.813,0-45,20.187-45,45s20.187,45,45,45h75v-30h120v-69.677c35.98-16.675,61-53.129,61-95.323
			C512,259.285,486.955,222.814,450.945,206.151z M90,374.993c-34.19-6.969-60-37.274-60-73.493c0-36.219,25.81-66.524,60-73.493
			V374.993z M301,466.5h-45c-8.271,0-15-6.729-15-15s6.729-15,15-15h45V466.5z M422,374.993V228.007
			c34.19,6.969,60,37.274,60,73.493S456.19,368.024,422,374.993z"/>
	</g>
</g>
</svg>
