<?xml version="1.0" encoding="utf-8"?>
<!-- Generator: Adobe Illustrator 18.1.1, SVG Export Plug-In . SVG Version: 6.00 Build 0)  -->
<svg version="1.1" id="Layer_1" xmlns="http://www.w3.org/2000/svg" xmlns:xlink="http://www.w3.org/1999/xlink" x="0px" y="0px"
	 viewBox="0 0 100 100" enable-background="new 0 0 100 100" xml:space="preserve">
<g>
	<path fill="#009223" d="M91.8,87H8.2c-1.3,0-2.4,1.1-2.4,2.4s1.1,2.4,2.4,2.4h83.6c1.3,0,2.3-1.1,2.3-2.4S93.1,87,91.8,87z"/>
	<path fill="#FFCE32" d="M25,57.8c0,0.1,0,0.3,0.4,0.4s0.4-0.1,0.5-0.2c1.8-3.1,4.2-6.7,7.6-10.3c-2.3,0.7-6,2.4-8.1,3.5
		C24.8,53.3,24.7,55.5,25,57.8z"/>
	<path fill="#FFCE32" d="M61.3,61.4c0.4,0.3,0.7,0.1,0.8,0c3.7-2.8,9.2-6.2,15.9-8.3c-1.5-1-6.7-3.5-8.4-4.3
		c-3.1,2.1-6.7,5.9-8.6,11.9C61,60.8,60.9,61.2,61.3,61.4z"/>
	<path fill="#FFCE32" d="M9.6,75.3c1.9,3.6,5.4,5.7,9.4,5.8H81c4-0.1,7.5-2.2,9.4-5.8c1.9-3.6,1.6-7.8-0.7-11.1
		c-1.7-2.4-3.6-4.6-5.8-6.6C76,59.1,69.6,63,65.5,66.1c-1.2,0.9-2.5,1.3-3.9,1.3c-1.3,0-2.6-0.4-3.8-1.2c-2.4-1.7-3.3-4.5-2.5-7.2
		c1.7-5.5,4.6-9.5,7.5-12.3c-4.2-1-9.3-1.6-17.1-1.4c-7.4,4.2-12.2,10.8-15,15.6c-1.2,2-4.3,3.6-6.8,3c-2.7-0.6-4.7-2.7-5-5.5
		c-0.1-1.1-0.2-2.1-0.2-3.2c-3.4,2.6-6.3,5.6-8.7,8.9S7.7,71.7,9.6,75.3z"/>
	<path fill="#4D4D4D" d="M93.4,81.3c0.9-1,1.6-2.1,2.2-3.3c2.9-5.5,2.4-12.1-1.2-17.2c-4.6-6.5-11-11.9-18.7-15.6
		C68,41.3,59.1,39.3,50,39.3s-18,2-25.8,5.9c-7.6,3.8-14.1,9.2-18.7,15.6C2,65.9,1.5,72.5,4.4,78c0.6,1.2,1.4,2.3,2.2,3.3
		C2.9,82,0,85.3,0,89.3c0,4.5,3.7,8.2,8.2,8.2h83.5c4.5,0,8.2-3.7,8.2-8.2C100,85.3,97.2,82,93.4,81.3z M91.8,91.7H8.2
		c-1.3,0-2.4-1.1-2.4-2.4S6.9,87,8.2,87h83.5c1.3,0,2.4,1.1,2.4,2.4S93.1,91.7,91.8,91.7z M33.4,47.7c-3.4,3.5-5.8,7.2-7.6,10.3
		c-0.1,0.1-0.2,0.3-0.5,0.2S25,57.9,25,57.8c-0.2-2.3-0.1-4.5,0.3-6.6C27.4,50.2,31.1,48.5,33.4,47.7z M19,55.2
		c0,1.1,0.1,2.1,0.2,3.2c0.3,2.8,2.3,4.9,5,5.5c2.5,0.6,5.6-1,6.8-3c2.7-4.8,7.5-11.4,15-15.6c7.7-0.2,12.9,0.4,17.1,1.4
		c-2.9,2.8-5.8,6.8-7.5,12.3c-0.8,2.8,0.1,5.6,2.5,7.2c1.2,0.8,2.4,1.2,3.8,1.2c1.4,0,2.7-0.4,3.9-1.3c4.1-3.1,10.5-7,18.3-8.5
		c2.2,2,4.2,4.2,5.8,6.6c2.3,3.3,2.6,7.5,0.7,11.1C88.5,78.9,85,81,81,81.1H18.9c-4-0.1-7.5-2.2-9.4-5.8c-1.9-3.7-1.6-7.8,0.8-11.1
		S15.6,57.8,19,55.2z M69.6,48.8c1.6,0.8,6.9,3.3,8.4,4.3c-6.7,2.1-12.2,5.5-15.9,8.3c-0.1,0.1-0.4,0.3-0.8,0
		c-0.4-0.3-0.3-0.6-0.3-0.7C62.9,54.7,66.5,51,69.6,48.8z"/>
	<path fill="#4D4D4D" d="M41.6,30.7c1.6,0,3-1.3,3-2.9v-7.2c0-1.4,0.6-2.7,1.7-3.5c2.6-1.9,4.1-5,4.1-8.2V5.2c0-1.6-1.3-3-2.9-3
		s-2.9,1.4-2.9,3v3.7c0,1.4-0.7,2.7-1.8,3.5c-2.6,1.9-4.1,5-4.1,8.2v7.2C38.7,29.5,39.9,30.7,41.6,30.7z"/>
	<path fill="#4D4D4D" d="M49.6,27.8c0,1.6,1.3,2.9,2.9,2.9s2.9-1.3,2.9-2.9v-1.3c0-1.4,0.7-2.7,1.8-3.5c2.6-1.9,4.1-5,4.1-8.2V5.1
		c0-1.6-1.3-2.9-2.9-2.9s-2.9,1.3-2.9,2.9v9.6c0,1.4-0.7,2.7-1.8,3.5c-2.6,1.9-4.1,5-4.1,8.2V27.8z"/>
</g>
</svg>
