<svg height="512pt" viewBox="0 0 511 512" width="512pt" xmlns="http://www.w3.org/2000/svg"><path fill="#009223" d="m478.03125 420.117188v-187.757813c6.632812-2.667969 12.742188-6.636719 17.988281-11.785156 10.328125-10.132813 16.171875-23.675781 16.457031-38.128907.035157-1.773437-.246093-3.550781-.835937-5.226562l-59.070313-167.363281c-2.082031-5.90625-7.664062-9.855469-13.925781-9.855469h-364.308593c-6.261719 0-11.839844 3.949219-13.925782 9.855469l-59.070312 167.367187c-.589844 1.671875-.871094 3.453125-.835938 5.222656.285156 14.457032 6.132813 27.996094 16.457032 38.128907 5.246093 5.148437 11.355468 9.117187 17.992187 11.785156v189.40625c-17.285156 6.875-29.539063 23.761719-29.539063 43.464844v32c0 8.15625 6.613282 14.769531 14.769532 14.769531h477.539062c8.15625 0 14.765625-6.613281 14.765625-14.769531v-32c.003907-21.527344-14.625-39.695313-34.457031-45.113281zm-275.695312-1.65625h-68.921876v-128h68.921876zm14.769531-157.539063h-98.460938c-8.15625 0-14.769531 6.613281-14.769531 14.769531v142.769532h-39.382812v-182.902344c11.074218-1.824219 21.3125-6.976563 29.472656-14.984375.585937-.570313 1.152344-1.152344 1.707031-1.746094.554687.59375 1.121094 1.175781 1.703125 1.746094 10.339844 10.144531 24.011719 15.734375 38.5 15.734375s28.164062-5.589844 38.503906-15.734375c.578125-.570313 1.148438-1.152344 1.699219-1.746094.554687.59375 1.125 1.175781 1.707031 1.746094 10.34375 10.144531 24.015625 15.734375 38.503906 15.734375 14.488282 0 28.160157-5.589844 38.5-15.734375.582032-.570313 1.152344-1.152344 1.703126-1.746094.550781.59375 1.121093 1.175781 1.703124 1.746094 10.335938 10.148437 24.011719 15.734375 38.5 15.734375 14.488282 0 28.160157-5.589844 38.503907-15.734375.582031-.570313 1.148437-1.15625 1.703125-1.746094.554687.59375 1.121094 1.171875 1.703125 1.746094 10.339843 10.144531 24.011719 15.734375 38.5 15.734375s28.164062-5.589844 38.503906-15.734375c.582031-.570313 1.148437-1.152344 1.699219-1.746094.554687.59375 1.125 1.175781 1.707031 1.746094 8.160156 8.007812 18.402344 13.160156 29.476563 14.984375v182.902344h-216.617188v-142.769532c0-8.15625-6.613281-14.769531-14.769531-14.769531zm-132.320313-231.382813h343.410156l54.59375 154.683594c-1.449218 12.632813-12.320312 22.546875-25.269531 22.546875-13.75 0-25.164062-11.175781-25.433593-24.910156-.003907-.078125-.003907-.160156-.007813-.238281v-.230469c0-.019531 0-.035156 0-.054687 0-8.15625-6.613281-14.769532-14.769531-14.769532s-14.769532 6.613282-14.769532 14.769532v.308593c-.003906.089844-.003906.128907-.007812.21875-.273438 13.730469-11.675781 24.90625-25.425781 24.90625-13.746094 0-25.152344-11.175781-25.425781-24.910156 0-.085937-.003907-.175781-.007813-.261719 0-.085937 0-.175781 0-.261718 0-8.15625-6.613281-14.769532-14.769531-14.769532s-14.769532 6.613282-14.769532 14.769532v.320312c-.003906.082031-.003906.121094-.003906.203125-.273437 13.734375-11.683594 24.910156-25.4375 24.910156-13.746094 0-25.152344-11.175781-25.425781-24.910156 0-.078125-.003906-.160156-.003906-.238281v-.226563c0-.019531 0-.039062 0-.058593 0-8.15625-6.613281-14.769532-14.769531-14.769532s-14.769532 6.613282-14.769532 14.769532v.058593.226563c-.003906.078125-.003906.160156-.007812.238281-.273438 13.734375-11.679688 24.910156-25.425782 24.910156-13.753906 0-25.164062-11.175781-25.433593-24.910156-.003907-.078125-.003907-.121094-.007813-.203125v-.320312c0-8.15625-6.613281-14.769532-14.769531-14.769532s-14.769531 6.613282-14.769531 14.769532v.261718c-.003906.085938-.007813.175782-.007813.265625-.273437 13.730469-11.679687 24.90625-25.425781 24.90625s-25.152344-11.175781-25.425781-24.910156c0-.089844-.003907-.125-.003907-.214844l-.003906-.308593c0-8.15625-6.609375-14.769532-14.769531-14.769532-8.15625 0-14.765625 6.613282-14.765625 14.769532v.054687.226563c-.003906.082031-.007812.160156-.007812.242187-.273438 13.734375-11.683594 24.910156-25.4375 24.910156-12.949219 0-23.820313-9.914062-25.265626-22.546875zm398.167969 452.921876h-448v-17.230469c0-9.5 7.730469-17.230469 17.230469-17.230469h413.539062c9.5 0 17.230469 7.730469 17.230469 17.230469zm0 0"/><path fill="#009223" d="m305.722656 369.230469h59.074219c24.433594 0 44.308594-19.875 44.308594-44.308594v-19.691406c0-24.429688-19.875-44.308594-44.308594-44.308594h-59.074219c-24.433594 0-44.308594 19.878906-44.308594 44.308594v19.691406c0 24.433594 19.875 44.308594 44.308594 44.308594zm-14.769531-64c0-8.144531 6.625-14.769531 14.769531-14.769531h59.074219c8.144531 0 14.769531 6.625 14.769531 14.769531v19.691406c0 8.144531-6.625 14.769531-14.769531 14.769531h-59.074219c-8.144531 0-14.769531-6.625-14.769531-14.769531zm0 0"/></svg>