<?xml version="1.0" encoding="utf-8"?>
<!-- Generator: Adobe Illustrator 18.1.1, SVG Export Plug-In . SVG Version: 6.00 Build 0)  -->
<svg version="1.1" id="Capa_1" xmlns="http://www.w3.org/2000/svg" xmlns:xlink="http://www.w3.org/1999/xlink" x="0px" y="0px"
	 viewBox="0 0 100 100" enable-background="new 0 0 100 100" xml:space="preserve">
<g>
	<path fill="none" d="M23,79c0,1.6,1.4,3,3,3s3-1.4,3-3V65h-6V79z"/>
	<path fill="#009223" d="M71,73V21c0-1.6-1.4-3-3-3s-3,1.4-3,3v52c0,1.6,1.4,3,3,3S71,74.6,71,73z"/>
	<path fill="none" d="M12,53V41c-3.2,0-6.1,2.9-6.1,6.1C5.9,50.3,8.8,53,12,53z"/>
	<path fill="none" d="M35,35H20c-1.6,0-3,1.8-3,3.4V56c0,1.6,1.4,3,3,3h15V35z"/>
	<path fill="#FFCE32" d="M59,28c-4.9,4.3-11.3,6.4-18,7v24c6.7,0.6,13.1,2.7,18,7V28z"/>
	<path fill="#4D4D4D" d="M97.1,47.1h-8.8c-1.6,0-2.9,1.3-2.9,2.9s1.3,2.9,2.9,2.9h8.8c1.6,0,2.9-1.3,2.9-2.9S98.7,47.1,97.1,47.1z"
		/>
	<path fill="#4D4D4D" d="M87.4,59.6c-1.1-1.1-3-1.1-4.1,0c-1.1,1.1-1.1,3,0,4.1l5.9,5.9c1.1,1.1,3,1.1,4.1,0c1.1-1.1,1.1-3,0-4.1
		L87.4,59.6z"/>
	<path fill="#4D4D4D" d="M87.4,40.4l5.9-5.9c1.1-1.1,1.1-3,0-4.1c-1.1-1.1-3-1.1-4.1,0l-5.9,5.9c-1.1,1.1-1.1,3,0,4.1
		C84.4,41.5,86.3,41.5,87.4,40.4z"/>
	<path fill="#4D4D4D" d="M68,12c-4.4,0-8.3,3.2-8.9,7.4l-2.7,2.7C51.8,26.7,44.8,29,38,29H20.4c-3.8,0-7,2.9-8.2,6.4h-0.5
		C5.3,35.4,0,40.6,0,47.1s5.3,11.7,11.7,11.7h0.5c0.9,2.5,2.3,4.2,4.8,5.1V79c0,4.8,4.2,9,9,9s9-4.2,9-9V65h3
		c6.8,0,13.8,2.4,18.4,7.1L59,75c0.6,4.2,4.6,7,9,7c4.8,0,9-4.2,9-9V20C77,15.2,72.8,12,68,12z M65,73V21c0-1.6,1.4-3,3-3s3,1.4,3,3
		v52c0,1.6-1.4,3-3,3S65,74.6,65,73z M29,79c0,1.6-1.4,3-3,3s-3-1.4-3-3V65h6V79z M20,59c-1.6,0-3-1.4-3-3V38.4c0-1.6,1.4-3.4,3-3.4
		h15v24H20z M12,41v12c-3.2,0-6.1-2.7-6.1-5.9C5.9,43.9,8.8,41,12,41z M41,35c6.7-0.6,13.1-2.7,18-7v38c-4.9-4.3-11.3-6.4-18-7V35z"
		/>
</g>
</svg>
