<svg height="512pt" viewBox="0 -11 512 512" width="512pt" xmlns="http://www.w3.org/2000/svg"><path fill="#009223" d="m478.089844 405.761719c4.386718-5.046875 8.222656-10.667969 11.394531-16.785157 14.648437-28.25 12.378906-61.921874-5.921875-87.882812-23.375-33.15625-56.386719-60.871094-95.46875-80.140625-40.019531-19.734375-85.695312-30.167969-132.09375-30.167969s-92.078125 10.433594-132.097656 30.167969c-39.078125 19.269531-72.089844 46.984375-95.46875 80.140625-18.300782 25.960938-20.570313 59.632812-5.921875 87.882812 3.171875 6.117188 7.007812 11.738282 11.394531 16.785157-19.304688 3.835937-33.90625 20.90625-33.90625 41.324219 0 23.230468 18.898438 42.128906 42.128906 42.128906h427.742188c23.230468 0 42.128906-18.898438 42.128906-42.128906 0-20.417969-14.601562-37.488282-33.910156-41.324219zm-121.984375-166.199219c8.34375 4.117188 35.089843 16.949219 42.75 21.878906-34.273438 10.820313-62.289063 28.304688-81.382813 42.699219-.46875.355469-1.902344 1.433594-3.859375.054687-1.988281-1.394531-1.453125-3.132812-1.277343-3.707031 9.542968-30.894531 28.101562-49.84375 43.769531-60.925781zm-226.761719 12.332031c10.859375-5.355469 30.023438-13.984375 41.707031-17.785156-17.203125 17.960937-29.9375 36.820313-38.863281 52.488281-.285156.496094-.800781 1.417969-2.421875 1.082032-1.640625-.339844-1.761719-1.460938-1.820313-2-1.242187-11.546876-.773437-22.882813 1.398438-33.785157zm-76.390625 66.488281c12.019531-17.046874 27.003906-32.484374 44.316406-45.777343-.023437 5.390625.261719 10.824219.847657 16.289062 1.53125 14.191407 11.554687 25.242188 25.535156 28.15625 12.578125 2.96875 28.707031-5.261719 34.601562-15.601562 14.042969-24.648438 38.617188-58.171875 76.621094-79.863281 39.507812-.800782 65.90625 1.910156 87.285156 7.167968-15.007812 14.347656-29.773437 34.65625-38.488281 62.886719-4.347656 14.074219.640625 28.640625 12.703125 37.109375 5.863281 4.117188 12.515625 6.167969 19.152344 6.167969 6.996094 0 13.980468-2.277344 20.003906-6.820313 20.902344-15.761718 53.679688-35.65625 93.570312-43.480468 11.332032 10.3125 21.386719 21.628906 29.945313 33.765624 11.996094 17.015626 13.421875 38.246094 3.808594 56.78125-9.492188 18.308594-27.289063 29.375-47.773438 29.792969h-318.164062c-20.484375-.417969-38.28125-11.484375-47.773438-29.792969-9.613281-18.535156-8.1875-39.765624 3.808594-56.78125zm416.917969 140.832032h-427.742188c-6.6875 0-12.128906-5.441406-12.128906-12.128906s5.441406-12.128907 12.128906-12.128907h427.742188c6.6875 0 12.128906 5.441407 12.128906 12.128907s-5.441406 12.128906-12.128906 12.128906zm0 0"/><path fill="#009223" d="m212.800781 145.734375c8.285157 0 15-6.714844 15-15v-36.644531c0-7.027344 3.363281-13.738282 9.003907-17.957032 13.167968-9.855468 21.027343-25.546874 21.027343-41.980468v-19.152344c0-8.285156-6.714843-15-15-15-8.285156 0-15 6.714844-15 15v19.152344c0 7.027344-3.367187 13.742187-9.003906 17.960937-13.167969 9.851563-21.027344 25.546875-21.027344 41.976563v36.644531c0 8.285156 6.714844 15 15 15zm0 0"/><path fill="#009223" d="m254.144531 130.734375c0 8.285156 6.714844 15 15 15 8.285157 0 15-6.714844 15-15v-6.671875c0-7.027344 3.367188-13.738281 9.003907-17.957031 13.167968-9.855469 21.027343-25.546875 21.027343-41.980469v-49.125c0-8.285156-6.714843-15-15-15-8.285156 0-15 6.714844-15 15v49.128906c0 7.023438-3.363281 13.738282-9.003906 17.957032-13.164063 9.855468-21.027344 25.546874-21.027344 41.976562zm0 0"/></svg>