<?xml version="1.0" encoding="utf-8"?>
<!-- Generator: Adobe Illustrator 18.1.1, SVG Export Plug-In . SVG Version: 6.00 Build 0)  -->
<svg version="1.1" id="Layer_1" xmlns="http://www.w3.org/2000/svg" xmlns:xlink="http://www.w3.org/1999/xlink" x="0px" y="0px"
	 viewBox="0 0 100 100" enable-background="new 0 0 100 100" xml:space="preserve">
<g>
	<path fill="#ffc300" d="M8.7,11C4.4,11,1,14.4,1,18.7v28.2c0,4.3,3.4,7.7,7.7,7.7h14.1v35.3c0,0.9,0.6,1.7,1.5,1.9
		c0.9,0.2,1.8-0.2,2.2-1l14.6-29.3c2.3-4.5,3.4-9.5,3.4-14.6V18.7c0-4.3-3.4-7.7-7.7-7.7H8.7z"/>
	<path fill="#ffc300" d="M63.1,11c-4.3,0-7.7,3.4-7.7,7.7v28.2c0,4.3,3.4,7.7,7.7,7.7h14.1v35.3c0,0.9,0.6,1.7,1.5,1.9
		c0.9,0.2,1.8-0.2,2.2-1l14.6-29.3c2.3-4.5,3.4-9.5,3.4-14.6V18.7c0-4.3-3.4-7.7-7.7-7.7H63.1z"/>
</g>
<g display="none">
	<path display="inline" fill="#ffc300" d="M91.3,91.8c4.3,0,7.7-3.4,7.7-7.7V55.9c0-4.3-3.4-7.7-7.7-7.7H77.2V12.9
		c0-0.9-0.6-1.7-1.5-1.9c-0.9-0.2-1.8,0.2-2.2,1L58.9,41.4c-2.3,4.5-3.4,9.5-3.4,14.6v28.1c0,4.3,3.4,7.7,7.7,7.7H91.3z"/>
	<path display="inline" fill="#ffc300" d="M36.9,91.8c4.3,0,7.7-3.4,7.7-7.7V55.9c0-4.3-3.4-7.7-7.7-7.7H22.8V12.9
		c0-0.9-0.6-1.7-1.5-1.9c-0.9-0.2-1.8,0.2-2.2,1L4.4,41.4C2.2,45.9,1,50.9,1,56v28.1c0,4.3,3.4,7.7,7.7,7.7H36.9z"/>
</g>
</svg>
