<?xml version="1.0" encoding="utf-8"?>
<!-- Generator: Adobe Illustrator 18.1.1, SVG Export Plug-In . SVG Version: 6.00 Build 0)  -->
<svg version="1.1" id="Layer_1" xmlns="http://www.w3.org/2000/svg" xmlns:xlink="http://www.w3.org/1999/xlink" x="0px" y="0px"
	 viewBox="0 0 200 200" enable-background="new 0 0 200 200" xml:space="preserve">
<g>
	<path fill="#E8E8E8" d="M7.3,87.8V5.6h75.9v64.9c0,35.2-4.1,60.5-12.2,75.9c-11.3,21.2-28.9,37.2-52.7,48L1,166.5
		c14.2-5.8,24.7-14.9,31.7-27.3c6.9-12.5,10.8-29.6,11.6-51.3H7.3z M123.1,87.8V5.6H199v64.9c0,35.2-4.1,60.5-12.2,75.9
		c-11.3,21.2-28.9,37.2-52.7,48l-17.3-27.9c14.2-5.8,24.7-14.9,31.7-27.3c6.9-12.5,10.8-29.6,11.6-51.3H123.1z"/>
</g>
</svg>
