<?xml version="1.0" encoding="utf-8"?>
<!-- Generator: Adobe Illustrator 18.1.1, SVG Export Plug-In . SVG Version: 6.00 Build 0)  -->
<svg version="1.1" id="Layer_1" xmlns="http://www.w3.org/2000/svg" xmlns:xlink="http://www.w3.org/1999/xlink" x="0px" y="0px"
	 viewBox="0 0 200 200" enable-background="new 0 0 200 200" xml:space="preserve">
<g display="none">
	<path display="inline" fill="#FFC300" d="M17.4,22C8.8,22,2,28.8,2,37.4v56.4c0,8.6,6.8,15.4,15.4,15.4h28.2v70.6
		c0,1.8,1.2,3.4,3,3.8c1.8,0.4,3.6-0.4,4.4-2L82.2,123c4.6-9,6.8-19,6.8-29.2V37.4C89,28.8,82.2,22,73.6,22C73.6,22,17.4,22,17.4,22
		z"/>
	<path display="inline" fill="#FFC300" d="M126.2,22c-8.6,0-15.4,6.8-15.4,15.4v56.4c0,8.6,6.8,15.4,15.4,15.4h28.2v70.6
		c0,1.8,1.2,3.4,3,3.8c1.8,0.4,3.6-0.4,4.4-2L191,123c4.6-9,6.8-19,6.8-29.2V37.4c0-8.6-6.8-15.4-15.4-15.4
		C182.4,22,126.2,22,126.2,22z"/>
</g>
<g>
	<path fill="#E8E8E8" d="M76.9,112.2v82.2H1v-64.9c0-35.1,4.2-60.6,12.6-76.3c11-21,28.5-36.8,52.3-47.6l17.3,27.5
		c-14.4,6-25,15-31.9,26.9C44.5,72,40.7,89.4,39.9,112.2H76.9z M192.7,112.2v82.2h-75.9v-64.9c0-35.1,4.2-60.6,12.6-76.3
		c11-21,28.5-36.8,52.3-47.6L199,33.1c-14.4,6-25,15-31.9,26.9c-6.8,11.9-10.6,29.3-11.4,52.1H192.7z"/>
</g>
</svg>
